<?xml version="1.0" encoding="UTF-8"?>
<!DOCTYPE svg PUBLIC "-//W3C//DTD SVG 1.1//EN" "http://www.w3.org/Graphics/SVG/1.1/DTD/svg11.dtd">
<!-- Creator: CorelDRAW -->
<svg xmlns="http://www.w3.org/2000/svg" xml:space="preserve" width="50.0271mm" height="53.9644mm" version="1.1" style="shape-rendering:geometricPrecision; text-rendering:geometricPrecision; image-rendering:optimizeQuality; fill-rule:evenodd; clip-rule:evenodd"
viewBox="0 0 2850.99 3075.37"
 xmlns:xlink="http://www.w3.org/1999/xlink"
 xmlns:xodm="http://www.corel.com/coreldraw/odm/2003">
 <defs>
  <style type="text/css">
   <![CDATA[
    .fil0 {fill:#364898}
   ]]>
  </style>
 </defs>
 <g id="Camada_x0020_1">
  <metadata id="CorelCorpID_0Corel-Layer"/>
  <g id="_2840163695312">
   <path class="fil0" d="M1380.85 3075.37l116.68 0 100.97 -51.08c31.78,-19.67 46.32,-36.81 69.91,-62.27 28.99,-31.26 42.46,-68.22 58.76,-85.3 51.59,-54.07 44.42,14.69 82.8,-55.18 42.05,-83.11 -67.54,-45.29 -53.34,-128.95 8.52,-50.14 61.72,-9.99 64.22,-79.73 1.6,-44.58 -31.66,-49.1 -62.98,-65.46 -5.03,-115.55 12.54,-52.87 53.16,-104.52 38.41,-48.82 -5.51,-74.76 -21.26,-106.67 66.01,-193.29 232.39,-311.75 342.89,-494.08 413.74,-682.68 -171.34,-1430.28 -911.99,-1268.78 -400.68,87.36 -724.99,499.25 -599.59,1009.71 98.15,399.49 379.59,490.2 468.4,786.77 39.67,132.48 -35.09,44.67 -27.21,136.07 8.21,95.21 63.95,-20.17 53.63,133.89 -64.61,36.55 -91.62,56.68 -26.25,110.46 36.54,30.06 23.32,-22.35 43.64,62.2 7.04,29.32 5.41,55.19 19.68,85.32 59.41,125.4 178.87,152.18 227.89,177.59zm-71.22 -165.2c20.99,45.55 85.08,66.11 153.82,57.52 67.18,-8.4 105.81,-46.09 139.81,-90.3l-293.63 32.79zm-88.53 -368.5l0.72 71.73c3.21,1.68 8.71,-0.65 10.7,3.54 1.97,4.15 8.23,2.66 10.98,3.04l79.29 -3.78c35.41,-5.41 67.28,-9.46 103.05,-14.59 73.75,-10.58 145.29,-21.71 220.22,-31.61l5.79 -88.28 -430.75 59.95zm19.75 256.52c38.71,13.4 359.43,-30.1 413.93,-47.89l1.66 -63.42 -363.99 45.76c-66.71,8.83 -75.13,-0.14 -51.6,65.56zm-33.52 -375.81l427.23 -50.26c89.52,-22.09 16.11,-46.02 115.53,-199.93 115.24,-178.37 233.31,-259.46 337.41,-468.08 198,-396.81 12.83,-883.5 -453.15,-1015.26 -732.88,-207.21 -1235.28,598.71 -730.87,1218.9 113.49,139.54 261.84,263.52 303.84,514.63z"/>
   <path class="fil0" d="M1425.49 1832.47c76.32,100.7 195.32,93.67 268,-6.71 58.74,-81.12 -8.34,-22.77 76.31,-69.45 76.34,-42.1 71.7,-79.55 98.92,-175.22 20.61,-72.44 165.83,-122.89 59.76,-288.45 -64.61,-100.86 -5.25,-210.17 -168.13,-268.26 -80.36,-28.66 -32.57,10.74 -74.66,-57.62 -20.72,-33.66 -32.37,-50.55 -78.21,-66.81 -95.34,-33.81 -151.94,17.29 -190.92,59.3 -93.39,-101.74 -201.22,-87.31 -257.19,2.62 -43.17,69.36 -0.52,32.62 -73.54,70.6 -81.19,42.23 -80.6,70.69 -107.45,169.48 -15.56,57.25 -157.51,145.43 -64.58,287.04 49.44,75.34 26.21,-5.72 39.81,105.41 22.19,181.28 136.21,127.92 193.96,215.01 86.18,129.99 182.43,119.69 277.91,23.05zm33.42 -763.35l0 607.15c0,251.07 216,156.74 196.5,52.79 -46.45,-99.15 -95.11,-43.6 -97.57,-133.13 44.87,-14.54 53.59,-10.36 95.38,23.57 45,36.54 42.82,57.65 75.85,84.19 90.69,-48.11 49.07,-78.3 82.65,-167.85 19.93,-53.14 167.21,-90.04 41.6,-235.5 -45.96,-53.22 -21.88,-12.5 -22.68,-86.38 -0.81,-76.35 -48.22,-116.49 -114.77,-135.91l-36.3 49.47c-55.17,55.83 -57.18,5.16 -57.43,4.84 -18.26,-42.17 71.89,-117.38 -28.35,-166.67 -76.25,-37.49 -134.88,22.44 -134.88,103.41zm-227.75 82.85c-60.81,24.97 -56.43,-15.93 -96.05,-66.18 -77.66,22.19 -88.79,85.38 -91.83,183.83 -105.22,52.9 -131.49,163.39 -23,230.12 4.83,133.5 -2.48,179.07 116.17,213.4 31.91,-62.15 76.41,-133.05 163.28,-121.63 9.29,81.3 -58.2,59.26 -89.47,121.72 -32.7,65.33 22.49,133.71 94.12,122.85 119.47,-18.13 90.75,-246.62 90.75,-370.99 0,-96.72 14.04,-375.55 -16.54,-441.24 -25.28,-54.3 -95.55,-86.93 -152.33,-34.69 -77.91,71.66 28.06,98.61 4.91,162.81z"/>
   <path class="fil0" d="M1531.75 0l-51.35 0c-60.29,62.76 -43.93,54.48 -45.65,158.25 -1.24,74.19 -11.56,128.29 14.62,186.88 132.48,41.31 134.88,-53.59 125.52,-254.16 -3,-64.25 -7.4,-54.03 -43.14,-90.97z"/>
   <path class="fil0" d="M2850.99 1344.75l0 -47.34c-57.92,-71.88 -123.03,-41.33 -237.79,-29.75 -109.37,11.04 -143.53,40.85 -97.13,134.16 59.73,16.45 120.3,3.85 189.65,-2.7 93.45,-8.82 87.81,1.99 145.26,-54.37z"/>
   <path class="fil0" d="M-0 1408.79l0 43.31c61.23,63.18 68.16,45.43 171.58,42.13 86.39,-2.76 109.15,5.39 173.71,-25.33 13.06,-52.26 17.4,-43.9 -1.7,-97.54 -53.4,-23.6 -129.57,-16.19 -198.83,-14.69 -93.63,2.03 -101.09,-6.92 -144.75,52.13z"/>
   <path class="fil0" d="M2341.58 659.95c90.57,-135.97 169.05,-194.66 141.79,-294.04 -104.71,-47.96 -128.3,28.5 -178.77,104.11 -43.62,65.34 -148.96,196.58 36.99,189.93z"/>
   <path class="fil0" d="M609.88 569.67c43.96,-102.08 -31.95,-127.77 -83.08,-172.99 -36.74,-32.5 -105.62,-152.07 -178.31,-74.44 -61.23,65.39 48,137.69 77.72,162.49 63.48,52.98 84.67,118.09 183.67,84.94z"/>
   <path class="fil0" d="M1631.73 1209.37l-5.25 20.33c3.99,73.53 52.67,41.07 65.98,130.33 15.66,105.05 -42.64,103.37 -40.96,158.32 2.6,84.92 114.7,1.46 108.28,-145.99 -3.65,-83.88 -62.4,-179.54 -128.05,-162.99z"/>
   <path class="fil0" d="M1180.07 1536.44c21.15,-67.32 -33.95,-60.08 -33.73,-150.46 0.26,-101.35 57.67,-82.73 49.1,-152.81 -150.97,-47.88 -147.37,346.71 -15.38,303.27z"/>
  </g>
 </g>
</svg>
